<svg version="1.1" id="Layer_1" xmlns="http://www.w3.org/2000/svg" xmlns:xlink="http://www.w3.org/1999/xlink" x="0px" y="0px"
	 viewBox="0 0 595.3 841.9" style="enable-background:new 0 0 595.3 841.9;" xml:space="preserve">
<style type="text/css">
     .st0{
         fill:none;
         stroke:#0E6690;
         stroke-width:4;
         stroke-miterlimit:30;
     }
	  <defs>
           <style>
                .st0{
                    stroke-dasharray: 2800;
                    stroke-dashoffset :0;
                    fill:#18739F;
                    -webkit-animation: dash 5s linear 10;
                    -moz-animation: dash 5s linear 10;
                    -o-animation: dash 5s linear 10;
                    -ms-animation: dash 5s linear 10;
                    animation: dash 5s linear 10;
                }
                @-webkit-keyframes dash{
                    0%{
						stroke-dashoffset: 2800;
						fill-opacity: 0.5;
                    }
                    100%{
                         stroke-dashoffset: 0;						 
						 fill-opacity: 1;
						 stroke:#0E6690;
                    }
                }
                @-moz-keyframes dash{
                    0%{
						stroke-dashoffset: 2800;
						fill-opacity: 0.5;
                    }
                    100%{
                         stroke-dashoffset: 0;						 
						 fill-opacity: 1;
						 stroke:#0E6690;
                    }
                }
                @-o-keyframes dash{
                    0%{
						stroke-dashoffset: 2800;
						fill-opacity: 0.5;
                    }
                    100%{
                         stroke-dashoffset: 0;						 
						 fill-opacity: 1;
						 stroke:#0E6690;
                    }
                }
                @-ms-keyframes dash{
                    0%{
						stroke-dashoffset: 2800;
						fill-opacity: 0.5;
                    }
                    100%{
                         stroke-dashoffset: 0;						 
						 fill-opacity: 1;
						 stroke:#0E6690;
                    }
                }
                @keyframes dash{
                    0%{
						stroke-dashoffset: 2800;
						fill-opacity: 0.5;
                    }
                    100%{
                         stroke-dashoffset: 0;						 
						 fill-opacity: 1;
						 stroke:#0E6690;
                    }
                }
           </style>
      </defs>
</style>
<g>
	<path class="st0" d="M274.9,376.9c-6.5,1.3-12.8,3.2-18.8,6c-8.3,3.9-16.2,8.8-23.3,14.6c-5.1,4.2-9.7,8.8-13.9,13.9
		c-12.8,15.8-21.1,33.7-24.5,53.8c-3,17.9-2.1,35.6,3,53c2.9,10,7.1,19.4,12.7,28.2c5.1,8.1,11,15.5,18,22c5.8,5.4,12,10,18.8,14.1
		c5,3,10.2,5.1,15.5,7.2c19.8,7.8,40,7.7,60.4,2.8c0.4-0.1,0.7-0.1,1.1-0.2c1.4-0.5,2.3,0,3.1,1.2c5.8,8.7,11.9,17.1,17.8,25.7
		c3.7,5.4,7.5,10.8,11.3,16.1c4.3,5.9,8.2,12.2,12.7,18c0.6,0.8,1.1,1.7,1.5,2.5c0.4,0.7,0.6,1.4-0.4,1.9c-9.8,4.7-19.7,8.8-30.4,11
		c-0.5,0.3-1.1,0.4-1.5,0.8c-8.2,2.3-16.6,3.6-25,4.4c-20.2,1.9-40.3,0.6-60-4.4c-0.4-0.5-1-0.5-1.4-0.8c-6.6-1.6-13.2-3.4-19.4-6.2
		c-5.1-2.3-10.3-4.3-15.2-7c-7.7-4.4-15.4-8.9-22.5-14.3c-5.6-4.2-11.1-8.9-16.2-13.7c-7.1-6.6-13.7-13.9-19.6-21.6
		c-5.3-6.9-10.2-14.1-14.5-21.6c-10.8-19-18.4-39.3-22.5-60.8c-4.8-25-4.9-50-0.3-75c2.7-14.6,6.9-28.8,12.9-42.5
		c4.3-10,9.4-19.6,15.4-28.7c4.9-7.5,10.3-14.7,16.2-21.5c4.3-4.9,8.8-9.5,13.5-13.9c5.6-5.2,11.5-10,17.7-14.4
		c7.7-5.5,15.9-10.3,24.4-14.6c5.1-2.6,10.5-4.5,15.8-6.8c8.5-3.7,17.5-5.6,26.6-7.4c0.2,0,0.4-0.2,0.6-0.2c0.6-0.7,1.7-0.2,2.4-0.9
		c8.8-1.2,17.6-2.1,26.4-2.2c10.2-0.1,20.2,0.6,30.3,2.2c0.6,0.7,1.7,0.2,2.3,0.9c8.4,1.4,16.7,3.3,24.7,6.1
		c5.7,2,11.4,4.1,16.7,6.9c4.6,2.3,9.3,4.4,13.6,7.1c7,4.4,14,8.9,20.5,14.1c5.7,4.5,11.1,9.3,16.2,14.4
		c6.6,6.6,12.7,13.8,18.2,21.3c5,6.8,9.5,13.8,13.5,21.2c11.3,21.1,18.9,43.5,22.2,67.3c3.8,27.8,2.1,55.3-5.4,82.4
		c-2.7,9.7-6.1,19.1-10.3,28.3c-3.1,6.8-6.5,13.3-10.3,19.7c-0.8,1.4-1.5,1.5-2.8,0.7c-6.2-3.7-12.7-7-18.8-10.9
		c-3.8-2.4-7.9-4.4-11.7-6.8c-8.1-5-16.5-9.8-24.7-14.6c-2.1-1.2-4.2-2.7-6.4-3.8c-1.1-0.6-0.9-1-0.4-1.9c3.8-5.7,7.1-11.7,9.9-18
		c8.4-19.2,11.3-39.2,9.1-59.9c-1.6-15.1-6-29.3-13.3-42.6c-4.7-8.7-10.4-16.6-17.3-23.7c-5-5.1-10.3-9.7-16.1-13.8
		c-4-2.9-8.4-5-12.6-7.4c-6.7-3.9-14.1-5.7-21.4-7.7c-0.4-0.5-1-0.4-1.6-0.5c-0.4,0-0.8-0.1-1.1-0.4c-13.2-2.5-26.4-2.5-39.5,0
		C276.3,376.7,275.4,376.4,274.9,376.9z"/>
	<path class="st0" d="M370,657.9c0.5-0.7,0.2-1.2-0.2-1.8c-3-4.2-5.9-8.5-8.8-12.8c-5.8-8.3-11.6-16.7-17.4-25
		c-2.5-3.6-5.1-7.1-7.6-10.7c-3.2-4.6-6.3-9.1-9.4-13.7c-0.6-1-1.4-1.6-2.6-1.5c0.5-0.5,1.1-0.5,1.7-0.4c10.2,1.8,20.5,3.6,30.7,5.5
		c0.5,0.6,1.1,0.4,1.8,0.5c0.7,0,1.4-0.1,1.9,0.5c12.4,2.1,24.8,4.3,37.2,6.4c0.6,0.7,1.7,0.1,2.3,0.9c0.1,0.1,0.2,0.1,0.4,0
		c0.7,0.5,1.6-0.1,2.4,0.4c8.3,1.5,16.7,3,25,4.4c1.6,0.3,2.6,0.8,3.6,2.2c2.6,3.8,5.5,7.4,8.2,11.1c6,8.2,11.9,16.5,17.9,24.7
		c2.6,3.5,5.2,7,7.9,10.5c0.6,0.8,0.9,1.3-0.1,2.2c-1.1,1-2.2,2.1-3.4,3c-7.8,5.9-15.1,12.3-22.7,18.3c-5.9,4.6-11.7,9.4-17.5,14.3
		c-3.3,2.8-6.9,5.1-9.9,8.2c-1,1.1-2.5,0.4-3.7,0.5c-2.7,0.4-4.4-0.4-6-2.9c-7.3-10.9-14.9-21.6-22.4-32.4c-2.5-3.7-5-7.4-7.5-11.1
		C371.2,658.7,370.9,657.9,370,657.9z"/>
</g>
</svg>
